# xmcd
# 
# Track frame offsets:
#     150
#     6318
#     46453
#     62456
#     92043
#     118988
#     145350
#     152253
#     174395
#     195136
# 
# Disc length: 2909
# 
# Revision: 1
# Processed by: cddbd v1.5.2PL0 Copyright (c) Steve Scherf et al.
# Submitted via: fre:ac v1.0.31
# 
DISCID=7a0b5b0a
DTITLE=Marvin Gaye - The Concert Anthology - Disc One (The 1980 European Tour)
DYEAR=2004
DGENRE=R&B
TTITLE0=After The Dance (Introduction)
TTITLE1=Got To Give It Up
TTITLE2=Come Get To This
TTITLE3=Let's Get It On
TTITLE4=After The Dance
TTITLE5=If This World Were Mine - Ain't Nothing Like The Real Thing
TTITLE6=Ain't No Mountain High Enough
TTITLE7=How Sweet It Is (To Be Loved By You)
TTITLE8=I Want You
TTITLE9=Inner City Blues (Make Me Wanna Holler)
EXTD=
EXTT0=
EXTT1=
EXTT2=
EXTT3=
EXTT4=
EXTT5=
EXTT6=
EXTT7=
EXTT8=
EXTT9=
PLAYORDER=
